# xmcd
#
# Track frame offsets:
#	150
#	12933
#	23125
#	33020
#	46032
#	57375
#	71375
#	83005
#
# Disc length: 1268 seconds
#
# Revision: 0
# Processed by: cddbd v1.5.2PL0 Copyright (c) Steve Scherf et al.
# Submitted via: audiograbber 1.83.01
#
DISCID=5204f208
DTITLE=Jim Ed Brown - The Best Of Jim Ed Brown
DYEAR=2005
DGENRE=Country
TTITLE0=Morning
TTITLE1=Pop A Top
TTITLE2=Southern Loving
TTITLE3=You Can Have Her
TTITLE4=Broad-Minded Man
TTITLE5=It's That Time Of Night
TTITLE6=Sometime Sunshine
TTITLE7=Angel's Sunday
EXTD=
EXTT0=
EXTT1=
EXTT2=
EXTT3=
EXTT4=
EXTT5=
EXTT6=
EXTT7=
PLAYORDER=
